<?xml version="1.0" encoding="UTF-8"?>
<svg xmlns="http://www.w3.org/2000/svg" viewBox="0 -53 540 343" font-family="-apple-system, BlinkMacSystemFont, 'Hiragino Sans', 'Yu Gothic', sans-serif" font-size="15">
  <defs>
    <marker id="arrow" viewBox="0 0 10 10" refX="9" refY="5" markerWidth="6" markerHeight="6" orient="auto-start-reverse">
      <path d="M 0 0 L 10 5 L 0 10 z" fill="#7a7a7a"/>
    </marker>
    <marker id="dimarrow" viewBox="0 0 10 10" refX="9" refY="5" markerWidth="6" markerHeight="6" orient="auto-start-reverse">
      <path d="M 0 0 L 10 5 L 0 10 z" fill="#b8b8b8"/>
    </marker>
    <marker id="squasharrow-c" viewBox="0 0 10 10" refX="9" refY="5" markerWidth="6" markerHeight="6" orient="auto-start-reverse">
      <path d="M 0 0 L 10 5 L 0 10 z" fill="#d4a017"/>
    </marker>
    <marker id="squasharrow-d" viewBox="0 0 10 10" refX="9" refY="5" markerWidth="6" markerHeight="6" orient="auto-start-reverse">
      <path d="M 0 0 L 10 5 L 0 10 z" fill="#7cb342"/>
    </marker>
    <marker id="squasharrow-e" viewBox="0 0 10 10" refX="9" refY="5" markerWidth="6" markerHeight="6" orient="auto-start-reverse">
      <path d="M 0 0 L 10 5 L 0 10 z" fill="#4a90c4"/>
    </marker>
    <marker id="squasharrow-f" viewBox="0 0 10 10" refX="9" refY="5" markerWidth="6" markerHeight="6" orient="auto-start-reverse">
      <path d="M 0 0 L 10 5 L 0 10 z" fill="#7e57c2"/>
    </marker>
  </defs>

  <line x1="10" y1="80" x2="425" y2="80" stroke="#d6d6d6" stroke-width="1"/>
  <line x1="10" y1="210" x2="455" y2="210" stroke="#d8d8d8" stroke-width="1" stroke-dasharray="4,3"/>

  <line x1="82" y1="80" x2="118" y2="80" stroke="#7a7a7a" stroke-width="1.5" marker-end="url(#arrow)"/>
  <line x1="162" y1="80" x2="198" y2="80" stroke="#7a7a7a" stroke-width="1.5" marker-end="url(#arrow)"/>
  <line x1="242" y1="80" x2="274" y2="80" stroke="#7a7a7a" stroke-width="1.5" marker-end="url(#arrow)"/>
  <line x1="324" y1="80" x2="358" y2="80" stroke="#7a7a7a" stroke-width="1.5" marker-end="url(#arrow)"/>

  <path d="M 155 98 L 169 194" stroke="#7a7a7a" stroke-width="1.5" fill="none" marker-end="url(#arrow)"/>

  <line x1="200" y1="210" x2="240" y2="210" stroke="#b8b8b8" stroke-width="1.3" stroke-dasharray="4,3" marker-end="url(#dimarrow)"/>
  <line x1="280" y1="210" x2="320" y2="210" stroke="#b8b8b8" stroke-width="1.3" stroke-dasharray="4,3" marker-end="url(#dimarrow)"/>
  <line x1="360" y1="210" x2="400" y2="210" stroke="#b8b8b8" stroke-width="1.3" stroke-dasharray="4,3" marker-end="url(#dimarrow)"/>

  <line x1="194" y1="196" x2="282" y2="100" stroke="#d4a017" stroke-width="1.4" stroke-dasharray="4,3" marker-end="url(#squasharrow-c)"/>
  <line x1="270" y1="192" x2="290" y2="103" stroke="#7cb342" stroke-width="1.4" stroke-dasharray="4,3" marker-end="url(#squasharrow-d)"/>
  <line x1="330" y1="192" x2="310" y2="103" stroke="#4a90c4" stroke-width="1.4" stroke-dasharray="4,3" marker-end="url(#squasharrow-e)"/>
  <line x1="406" y1="196" x2="318" y2="100" stroke="#7e57c2" stroke-width="1.4" stroke-dasharray="4,3" marker-end="url(#squasharrow-f)"/>

  <path d="M 148 -41
    L 452 -41
    Q 460 -41 460 -33
    L 460 25
    Q 460 33 452 33
    L 308 33
    L 300 48
    L 292 33
    L 148 33
    Q 140 33 140 25
    L 140 -33
    Q 140 -41 148 -41 z"
    fill="white" stroke="#a07a30" stroke-width="1.6"/>

  <text x="300" y="-11" text-anchor="middle" fill="#704c00" font-weight="600" font-size="14">C, D, E, F の変更を 1 つの</text>
  <text x="300" y="11" text-anchor="middle" fill="#704c00" font-weight="600" font-size="14">スカッシュコミットにまとめる</text>

  <g>
    <circle cx="60" cy="80" r="22" fill="#f4f4f4" stroke="#a8a8a8" stroke-width="1.5"/>
    <text x="60" y="80" text-anchor="middle" dy="0.35em" fill="#424242" font-weight="600">A</text>
  </g>
  <g>
    <circle cx="140" cy="80" r="22" fill="#f4f4f4" stroke="#a8a8a8" stroke-width="1.5"/>
    <text x="140" y="80" text-anchor="middle" dy="0.35em" fill="#424242" font-weight="600">B</text>
  </g>
  <g>
    <circle cx="220" cy="80" r="22" fill="#f4f4f4" stroke="#a8a8a8" stroke-width="1.5"/>
    <text x="220" y="80" text-anchor="middle" dy="0.35em" fill="#424242" font-weight="600">G</text>
  </g>

  <g>
    <circle cx="300" cy="80" r="25" fill="#fff2c4" stroke="#e0a800" stroke-width="2.5"/>
    <text x="300" y="80" text-anchor="middle" dy="0.35em" fill="#704c00" font-weight="700">S</text>
  </g>

  <g>
    <circle cx="380" cy="80" r="22" fill="#f4f4f4" stroke="#a8a8a8" stroke-width="1.5"/>
    <text x="380" y="80" text-anchor="middle" dy="0.35em" fill="#424242" font-weight="600">H</text>
  </g>

  <g>
    <circle cx="180" cy="210" r="20" fill="#fef1d2" stroke="#e0bf6c" stroke-width="1.5"/>
    <text x="180" y="210" text-anchor="middle" dy="0.35em" fill="#a07a30" font-weight="600">C</text>
  </g>
  <g>
    <circle cx="260" cy="210" r="20" fill="#e6f2d5" stroke="#a8c983" stroke-width="1.5"/>
    <text x="260" y="210" text-anchor="middle" dy="0.35em" fill="#5a7a45" font-weight="600">D</text>
  </g>
  <g>
    <circle cx="340" cy="210" r="20" fill="#dbecf9" stroke="#88b3d4" stroke-width="1.5"/>
    <text x="340" y="210" text-anchor="middle" dy="0.35em" fill="#4a6d8c" font-weight="600">E</text>
  </g>
  <g>
    <circle cx="420" cy="210" r="20" fill="#ebe3f5" stroke="#b09cd4" stroke-width="1.5"/>
    <text x="420" y="210" text-anchor="middle" dy="0.35em" fill="#6a528f" font-weight="600">F</text>
  </g>

  <text x="430" y="80" dominant-baseline="middle" fill="#666" font-weight="600">main</text>
  <text x="460" y="210" dominant-baseline="middle" fill="#999" font-weight="600">feature</text>

  <text x="240" y="280" text-anchor="middle" fill="#9a9a9a" font-size="13">古い ─&gt; 新しい</text>
</svg>
